<?xml version="1.0" encoding="utf-8"?>
<!-- Generator: Adobe Illustrator 24.0.1, SVG Export Plug-In . SVG Version: 6.00 Build 0)  -->
<svg version="1.1" id="Layer_1" xmlns="http://www.w3.org/2000/svg" xmlns:xlink="http://www.w3.org/1999/xlink" x="0px" y="0px"
	 viewBox="0 0 1024 600" style="enable-background:new 0 0 1024 600;" xml:space="preserve">
<style type="text/css">
	.st0{stroke:#000000;stroke-miterlimit:10;}
</style>
<path class="st0" d="M555.86,314.37l-73.57-41.8l-15.43-3.43V0H0v600h555.86l6.85-261.71L555.86,314.37z M555.86,406.86
	c0,6.21-3.43,9.85-3.43,9.85s-11.14,7.29-20.36,12.43c-9.21,5.15-20.07-3.21-20.07-3.21s-36.71-21.43-52.14-30
	s-20.57-30.64-20.57-30.64s0.85-109.72,0.85-132c0-22.29,22.93-35.36,22.93-35.36v78c9.64-3,18,1.93,18,1.93s30.64,16.28,52.07,27
	c21.43,10.71,22.72,37.07,22.72,37.07S555.86,400.64,555.86,406.86z"/>
<path d="M463.07,290.07v56.14c0,0,3,23.36,16.07,32.79c13.07,9.43,54.64,31.93,54.64,31.93v-15l-36.21-21c0,0-21-16.07-21-35.57
	s0-42,0-42L463.07,290.07z"/>
<path d="M501.21,309.57v15c0,0-1.71,24.21,32.57,42.43v-16.5C533.79,350.5,534.21,321.79,501.21,309.57z"/>
<path d="M466.86,0H1024v600H555.86l6.85-261.71l-6.85-23.92l-73.57-41.8l-15.43-3.43V0z M477,268.57
	c5.29-2.86,15.29,1.43,15.29,1.43s38.86,19.43,57.71,30s18.77,38.29,18.77,38.29v68.84c0,0,14.73-8.2,21.59-12.91
	c6.86-4.71,5.14-12.86,5.14-12.86s0-48.86,0-70.07c0-21.21-26.57-35.36-26.57-35.36s-40.07-21-49.71-25.29
	c-9.64-4.29-17.36,1.93-17.36,1.93v-76.71L477,189.79V268.57z"/>
</svg>
